<svg width="20" height="20" viewBox="0 0 20 20" fill="none" xmlns="http://www.w3.org/2000/svg">
<path d="M8.04415 10.4338L7.2121 9.87907L7.2121 9.87907L8.04415 10.4338ZM4.16795 14.4453C3.8616 14.9048 3.98577 15.5257 4.4453 15.8321C4.90483 16.1384 5.5257 16.0142 5.83205 15.5547L4.16795 14.4453ZM15.8321 7.5547C16.1384 7.09517 16.0142 6.4743 15.5547 6.16795C15.0952 5.8616 14.4743 5.98577 14.1679 6.4453L15.8321 7.5547ZM11.9558 11.5662L12.7879 12.1209L12.7879 12.1209L11.9558 11.5662ZM10.2294 11.4587L11.1238 11.0115L11.1238 11.0115L10.2294 11.4587ZM9.77063 10.5413L10.6651 10.094L10.6651 10.094L9.77063 10.5413ZM7.2121 9.87907L4.16795 14.4453L5.83205 15.5547L8.8762 10.9885L7.2121 9.87907ZM14.1679 6.4453L11.1238 11.0115L12.7879 12.1209L15.8321 7.5547L14.1679 6.4453ZM11.1238 11.0115L10.6651 10.094L8.8762 10.9885L9.33494 11.906L11.1238 11.0115ZM11.1238 11.0115L11.1238 11.0115L9.33494 11.906C10.0217 13.2795 11.9361 13.3987 12.7879 12.1209L11.1238 11.0115ZM8.8762 10.9885L8.8762 10.9885L10.6651 10.094C9.97829 8.72052 8.06392 8.60134 7.2121 9.87907L8.8762 10.9885ZM5 2H15V0H5V2ZM18 5V15H20V5H18ZM15 18H5V20H15V18ZM2 15V5H0V15H2ZM5 18C4.02892 18 3.40121 17.9979 2.9387 17.9357C2.50496 17.8774 2.36902 17.7832 2.29289 17.7071L0.87868 19.1213C1.38834 19.631 2.01669 19.8297 2.67221 19.9179C3.29896 20.0021 4.08546 20 5 20V18ZM0 15C0 15.9145 -0.00212374 16.701 0.0821405 17.3278C0.170272 17.9833 0.369018 18.6117 0.87868 19.1213L2.29289 17.7071C2.21677 17.631 2.12262 17.495 2.06431 17.0613C2.00212 16.5988 2 15.9711 2 15H0ZM18 15C18 15.9711 17.9979 16.5988 17.9357 17.0613C17.8774 17.495 17.7832 17.631 17.7071 17.7071L19.1213 19.1213C19.631 18.6117 19.8297 17.9833 19.9179 17.3278C20.0021 16.701 20 15.9145 20 15H18ZM15 20C15.9145 20 16.701 20.0021 17.3278 19.9179C17.9833 19.8297 18.6117 19.631 19.1213 19.1213L17.7071 17.7071C17.631 17.7832 17.495 17.8774 17.0613 17.9357C16.5988 17.9979 15.9711 18 15 18V20ZM15 2C15.9711 2 16.5988 2.00212 17.0613 2.06431C17.495 2.12262 17.631 2.21677 17.7071 2.29289L19.1213 0.87868C18.6117 0.369018 17.9833 0.170272 17.3278 0.0821405C16.701 -0.00212374 15.9145 0 15 0V2ZM20 5C20 4.08546 20.0021 3.29896 19.9179 2.67221C19.8297 2.01669 19.631 1.38834 19.1213 0.87868L17.7071 2.29289C17.7832 2.36902 17.8774 2.50496 17.9357 2.9387C17.9979 3.40121 18 4.02892 18 5H20ZM5 0C4.08546 0 3.29896 -0.00212374 2.67221 0.0821405C2.01669 0.170272 1.38834 0.369017 0.87868 0.87868L2.29289 2.29289C2.36902 2.21677 2.50496 2.12262 2.9387 2.06431C3.40121 2.00212 4.02892 2 5 2V0ZM2 5C2 4.02892 2.00212 3.40121 2.06431 2.9387C2.12262 2.50496 2.21677 2.36902 2.29289 2.29289L0.87868 0.87868C0.369017 1.38834 0.170272 2.01669 0.0821405 2.67221C-0.00212374 3.29896 0 4.08546 0 5H2Z" fill="#CCD2E3"/>
</svg>
