<svg width="16" height="16" viewBox="0 0 16 16" fill="none" xmlns="http://www.w3.org/2000/svg">
<mask id="path-1-inside-1" fill="white">
<path d="M0 8C0 3.58172 3.58172 0 8 0C12.4183 0 16 3.58172 16 8V13.0909C16 13.9375 16 14.3608 15.8739 14.6989C15.6712 15.2425 15.2425 15.6712 14.6989 15.8739C14.3608 16 13.9375 16 13.0909 16H8C3.58172 16 0 12.4183 0 8Z"/>
</mask>
<path d="M5 6C4.44772 6 4 6.44772 4 7C4 7.55228 4.44772 8 5 8V6ZM11 8C11.5523 8 12 7.55228 12 7C12 6.44772 11.5523 6 11 6V8ZM8 10C7.44772 10 7 10.4477 7 11C7 11.5523 7.44772 12 8 12V10ZM11 12C11.5523 12 12 11.5523 12 11C12 10.4477 11.5523 10 11 10V12ZM5 8H11V6H5V8ZM8 12H11V10H8V12ZM15.8739 14.6989L17.7478 15.3979L17.7478 15.3979L15.8739 14.6989ZM14.6989 15.8739L15.3979 17.7478L15.3979 17.7478L14.6989 15.8739ZM14 8V13.0909H18V8H14ZM13.0909 14H8V18H13.0909V14ZM8 14C4.68629 14 2 11.3137 2 8H-2C-2 13.5228 2.47715 18 8 18V14ZM14 13.0909C14 13.539 13.9991 13.7841 13.9881 13.9617C13.978 14.1235 13.9653 14.0931 14 14L17.7478 15.3979C17.9086 14.9667 17.9589 14.5556 17.9804 14.2095C18.0009 13.8793 18 13.4894 18 13.0909H14ZM13.0909 18C13.4894 18 13.8793 18.0009 14.2095 17.9804C14.5556 17.9589 14.9667 17.9086 15.3979 17.7478L14 14C14.0931 13.9653 14.1235 13.978 13.9617 13.9881C13.7841 13.9991 13.539 14 13.0909 14V18ZM14 14L14 14L15.3979 17.7478C16.4849 17.3424 17.3424 16.4849 17.7478 15.3979L14 14ZM8 2C11.3137 2 14 4.68629 14 8H18C18 2.47715 13.5228 -2 8 -2V2ZM8 -2C2.47715 -2 -2 2.47715 -2 8H2C2 4.68629 4.68629 2 8 2V-2Z" fill="#CCD2E3" mask="url(#path-1-inside-1)"/>
</svg>
