<svg width="18" height="18" viewBox="0 0 18 18" fill="none" xmlns="http://www.w3.org/2000/svg">
<mask id="path-1-inside-1" fill="white">
<path d="M0 4C0 2.11438 0 1.17157 0.585786 0.585786C1.17157 0 2.11438 0 4 0H14C15.8856 0 16.8284 0 17.4142 0.585786C18 1.17157 18 2.11438 18 4V14C18 15.8856 18 16.8284 17.4142 17.4142C16.8284 18 15.8856 18 14 18H4C2.11438 18 1.17157 18 0.585786 17.4142C0 16.8284 0 15.8856 0 14V4Z"/>
</mask>
<path d="M6.8 6.4L7.6 5.8L7.6 5.8L6.8 6.4ZM6.2 5.6L5.4 6.2L5.4 6.2L6.2 5.6ZM3 4L3 5H3V4ZM8.10557 7.78885L7.65836 8.68328L7.65836 8.68328L8.10557 7.78885ZM16.7654 7.84776L17.1481 8.77164L17.1481 8.77164L16.7654 7.84776ZM17.8478 6.76537L16.9239 6.38268L16.9239 6.38268L17.8478 6.76537ZM4 12C3.44772 12 3 12.4477 3 13C3 13.5523 3.44772 14 4 14V12ZM12 14C12.5523 14 13 13.5523 13 13C13 12.4477 12.5523 12 12 12V14ZM15 7H10V9H15V7ZM7.6 5.8L7 5L5.4 6.2L6 7L7.6 5.8ZM3 3L7.94729e-08 3L-7.94729e-08 5L3 5L3 3ZM7 5C6.47138 4.29517 6.02468 3.65824 5.34164 3.31672L4.44721 5.10557C4.60875 5.18634 4.75091 5.33455 5.4 6.2L7 5ZM3 5C4.08181 5 4.28567 5.0248 4.44721 5.10557L5.34164 3.31672C4.6586 2.9752 3.88104 3 3 3V5ZM10 7C8.91819 7 8.71433 6.9752 8.55279 6.89443L7.65836 8.68328C8.3414 9.0248 9.11896 9 10 9V7ZM6 7C6.52862 7.70483 6.97532 8.34176 7.65836 8.68328L8.55279 6.89443C8.39125 6.81366 8.24909 6.66545 7.6 5.8L6 7ZM15 9C15.4523 9 15.8415 9.00054 16.1624 8.97865C16.4922 8.95615 16.8221 8.90664 17.1481 8.77164L16.3827 6.92388C16.3411 6.94112 16.2542 6.96773 16.0262 6.98329C15.7893 6.99946 15.4796 7 15 7V9ZM17 5C17 5.47962 16.9995 5.78926 16.9833 6.02624C16.9677 6.25424 16.9411 6.34107 16.9239 6.38268L18.7716 7.14805C18.9066 6.82212 18.9561 6.49221 18.9787 6.16238C19.0005 5.84154 19 5.45226 19 5H17ZM17.1481 8.77164C17.8831 8.46716 18.4672 7.88313 18.7716 7.14805L16.9239 6.38268C16.8224 6.62771 16.6277 6.82239 16.3827 6.92388L17.1481 8.77164ZM4 14H12V12H4V14ZM4 2H14V-2H4V2ZM16 4V14H20V4H16ZM14 16H4V20H14V16ZM2 14V4H-2V14H2ZM4 16C3.00065 16 2.45234 15.9958 2.07195 15.9446C1.7491 15.9012 1.85936 15.8594 2 16L-0.828427 18.8284C-0.101996 19.5549 0.772556 19.8059 1.53896 19.9089C2.24783 20.0042 3.11373 20 4 20V16ZM-2 14C-2 14.8863 -2.00425 15.7522 -1.90894 16.461C-1.8059 17.2274 -1.55486 18.102 -0.828427 18.8284L2 16C2.14064 16.1406 2.09879 16.2509 2.05539 15.928C2.00425 15.5477 2 14.9993 2 14H-2ZM16 14C16 14.9993 15.9958 15.5477 15.9446 15.928C15.9012 16.2509 15.8594 16.1406 16 16L18.8284 18.8284C19.5549 18.102 19.8059 17.2274 19.9089 16.461C20.0042 15.7522 20 14.8863 20 14H16ZM14 20C14.8863 20 15.7522 20.0042 16.461 19.9089C17.2274 19.8059 18.102 19.5549 18.8284 18.8284L16 16C16.1406 15.8594 16.2509 15.9012 15.928 15.9446C15.5477 15.9958 14.9993 16 14 16V20ZM14 2C14.9993 2 15.5477 2.00425 15.928 2.05539C16.2509 2.09879 16.1406 2.14064 16 2L18.8284 -0.828427C18.102 -1.55486 17.2274 -1.8059 16.461 -1.90894C15.7522 -2.00425 14.8863 -2 14 -2V2ZM20 4C20 3.11373 20.0042 2.24783 19.9089 1.53896C19.8059 0.772556 19.5549 -0.101996 18.8284 -0.828427L16 2C15.8594 1.85936 15.9012 1.7491 15.9446 2.07195C15.9958 2.45234 16 3.00065 16 4H20ZM4 -2C3.11373 -2 2.24783 -2.00425 1.53896 -1.90894C0.772556 -1.8059 -0.101996 -1.55486 -0.828427 -0.828427L2 2C1.85936 2.14064 1.7491 2.0988 2.07195 2.05539C2.45234 2.00425 3.00065 2 4 2V-2ZM2 4C2 3.00065 2.00425 2.45234 2.05539 2.07195C2.0988 1.7491 2.14064 1.85936 2 2L-0.828427 -0.828427C-1.55486 -0.101996 -1.8059 0.772556 -1.90894 1.53896C-2.00425 2.24783 -2 3.11373 -2 4H2Z" fill="#48B4E9" mask="url(#path-1-inside-1)"/>
</svg>
