<svg width="310" height="21" viewBox="0 0 310 21" fill="none" xmlns="http://www.w3.org/2000/svg">
<path d="M39.68 3.8H38L34.448 9.72L30.88 3.8H29.2V15H30.688V6.264L34.352 12.344H34.544L38.208 6.248V15H39.68V3.8ZM48.555 7V8.376C47.915 7.4 46.891 6.792 45.531 6.792C43.307 6.792 41.483 8.632 41.483 11C41.483 13.368 43.307 15.208 45.531 15.208C46.891 15.208 47.915 14.6 48.555 13.624V15H49.947V7H48.555ZM45.707 13.864C44.107 13.864 42.875 12.632 42.875 11C42.875 9.368 44.107 8.136 45.707 8.136C47.323 8.136 48.555 9.368 48.555 11C48.555 12.632 47.323 13.864 45.707 13.864ZM52.056 15H53.448V3.32H52.056V15ZM56.5476 11.64H63.2516C63.2836 11.432 63.2996 11.224 63.2996 11.016C63.2996 8.776 61.7316 6.792 59.3156 6.792C56.8196 6.792 55.1236 8.632 55.1236 11C55.1236 13.4 56.8356 15.208 59.4116 15.208C61.0116 15.208 62.2276 14.488 62.9316 13.4L61.7476 12.728C61.3476 13.384 60.5476 13.896 59.4436 13.896C57.9556 13.896 56.8196 13.08 56.5476 11.64ZM59.3156 8.104C60.5156 8.104 61.6516 8.84 61.8916 10.424H56.5476C56.7716 9.032 57.8116 8.104 59.3156 8.104Z" fill="black"/>
<rect y="1" width="20" height="20" rx="10" fill="#017EFA"/>
<path d="M145.648 5.208V3.8H139.2V15H140.688V10.248H145.44V8.84H140.688V5.208H145.648ZM148.282 11.64H154.986C155.018 11.432 155.034 11.224 155.034 11.016C155.034 8.776 153.466 6.792 151.05 6.792C148.554 6.792 146.858 8.632 146.858 11C146.858 13.4 148.57 15.208 151.146 15.208C152.746 15.208 153.962 14.488 154.666 13.4L153.482 12.728C153.082 13.384 152.282 13.896 151.178 13.896C149.69 13.896 148.554 13.08 148.282 11.64ZM151.05 8.104C152.25 8.104 153.386 8.84 153.626 10.424H148.282C148.506 9.032 149.546 8.104 151.05 8.104ZM165.274 6.792C164.234 6.792 163.322 7.24 162.762 8.152C162.298 7.288 161.498 6.792 160.41 6.792C159.434 6.792 158.602 7.176 158.026 8.072V7H156.634V15H158.026V10.552C158.026 8.824 159.002 8.12 160.074 8.12C161.114 8.12 161.77 8.808 161.77 10.072V15H163.162V10.552C163.162 8.824 164.01 8.12 165.13 8.12C166.186 8.12 166.89 8.808 166.89 10.072V15H168.282V10.024C168.282 8.024 167.05 6.792 165.274 6.792ZM176.836 7V8.376C176.196 7.4 175.172 6.792 173.812 6.792C171.588 6.792 169.764 8.632 169.764 11C169.764 13.368 171.588 15.208 173.812 15.208C175.172 15.208 176.196 14.6 176.836 13.624V15H178.228V7H176.836ZM173.988 13.864C172.388 13.864 171.156 12.632 171.156 11C171.156 9.368 172.388 8.136 173.988 8.136C175.604 8.136 176.836 9.368 176.836 11C176.836 12.632 175.604 13.864 173.988 13.864ZM180.337 15H181.729V3.32H180.337V15ZM184.829 11.64H191.533C191.565 11.432 191.581 11.224 191.581 11.016C191.581 8.776 190.013 6.792 187.597 6.792C185.101 6.792 183.405 8.632 183.405 11C183.405 13.4 185.117 15.208 187.693 15.208C189.293 15.208 190.509 14.488 191.213 13.4L190.029 12.728C189.629 13.384 188.829 13.896 187.725 13.896C186.237 13.896 185.101 13.08 184.829 11.64ZM187.597 8.104C188.797 8.104 189.933 8.84 190.173 10.424H184.829C185.053 9.032 186.093 8.104 187.597 8.104Z" fill="black"/>
<rect x="110" y="1" width="20" height="20" rx="10" fill="#51CBFF"/>
<path d="M273.4 15.208C276.648 15.208 279.208 12.616 279.208 9.4C279.208 6.168 276.648 3.592 273.4 3.592C270.152 3.592 267.608 6.168 267.608 9.4C267.608 12.616 270.152 15.208 273.4 15.208ZM273.4 13.752C270.952 13.752 269.08 11.848 269.08 9.4C269.08 6.936 270.952 5.032 273.4 5.032C275.848 5.032 277.72 6.936 277.72 9.4C277.72 11.848 275.848 13.752 273.4 13.752ZM285.205 8.344V7H283.077V4.76L281.685 5.176V7H280.101V8.344H281.685V12.68C281.685 14.68 282.805 15.32 285.205 15V13.752C283.781 13.816 283.077 13.896 283.077 12.68V8.344H285.205ZM290.837 6.792C289.717 6.792 288.837 7.208 288.245 8.152V3.8H286.853V15H288.245V10.76C288.245 8.872 289.285 8.12 290.565 8.12C291.797 8.12 292.549 8.856 292.549 10.168V15H293.941V10.088C293.941 8.04 292.709 6.792 290.837 6.792ZM296.86 11.64H303.564C303.596 11.432 303.612 11.224 303.612 11.016C303.612 8.776 302.044 6.792 299.628 6.792C297.132 6.792 295.436 8.632 295.436 11C295.436 13.4 297.148 15.208 299.724 15.208C301.324 15.208 302.54 14.488 303.244 13.4L302.06 12.728C301.66 13.384 300.86 13.896 299.756 13.896C298.268 13.896 297.132 13.08 296.86 11.64ZM299.628 8.104C300.828 8.104 301.964 8.84 302.204 10.424H296.86C297.084 9.032 298.124 8.104 299.628 8.104ZM306.604 8.344V7H305.212V15H306.604V10.76C306.604 8.872 307.9 8.264 309.1 8.312V6.856C308.092 6.856 307.116 7.224 306.604 8.344Z" fill="black"/>
<rect x="239" y="1" width="20" height="20" rx="10" fill="#30D887"/>
</svg>
