<svg width="97" height="98" viewBox="0 0 97 98" fill="none" xmlns="http://www.w3.org/2000/svg">
<g filter="url(#filter0_d)">
<circle cx="48.4894" cy="44.25" r="28.5104" fill="white"/>
</g>
<path d="M37.7721 42.3327L40.695 38.5395V35.9959H30.8775V38.8742H36.9911L33.912 42.8905L35.0946 44.6755H35.7639C37.3704 44.6755 38.2629 45.5457 38.2629 46.7952C38.2629 48.067 37.3704 48.9148 35.7639 48.9148C34.2913 48.9148 33.4211 48.2678 33.0418 47.1075L30.4089 48.6248C31.3014 50.856 33.4211 51.927 35.7639 51.927C38.7092 51.927 41.3421 50.142 41.3421 46.7952C41.3421 44.497 39.8025 42.9351 37.7721 42.3327ZM51.8272 43.4929C52.8313 42.7789 53.456 41.7079 53.456 40.2576C53.456 37.2454 51.1355 35.6835 48.3911 35.6835C45.6466 35.6835 43.3038 37.2454 43.3038 40.2576C43.3038 41.7079 43.9509 42.7789 44.9326 43.4929C43.5716 44.3185 42.7906 45.6795 42.7906 47.2637C42.7906 50.142 44.9103 51.927 48.3911 51.927C51.8495 51.927 53.9915 50.142 53.9915 47.2637C53.9915 45.6795 53.2106 44.3185 51.8272 43.4929ZM48.3911 38.5842C49.5513 38.5842 50.3992 39.2535 50.3992 40.4138C50.3992 41.5517 49.5513 42.2657 48.3911 42.2657C47.2308 42.2657 46.3829 41.5517 46.3829 40.4138C46.3829 39.2535 47.2308 38.5842 48.3911 38.5842ZM48.3911 49.0264C46.9184 49.0264 45.8474 48.2678 45.8474 46.8621C45.8474 45.4787 46.9184 44.7201 48.3911 44.7201C49.8637 44.7201 50.9347 45.4787 50.9347 46.8621C50.9347 48.2678 49.8637 49.0264 48.3911 49.0264ZM59.0749 43.0467C61.2392 43.0467 62.8234 41.4178 62.8234 39.3651C62.8234 37.29 61.2169 35.6835 59.0749 35.6835C56.9106 35.6835 55.3041 37.3347 55.3041 39.3651C55.3041 41.4178 56.9106 43.0467 59.0749 43.0467ZM56.8883 49.2495L58.227 50.0305L68.4239 38.6957L67.0628 37.9371L56.8883 49.2495ZM59.0526 40.7931C58.2494 40.7931 57.6692 40.1683 57.6692 39.3651C57.6692 38.5842 58.2494 37.9594 59.0526 37.9594C59.8782 37.9594 60.4583 38.5842 60.4583 39.3651C60.4583 40.146 59.8782 40.7931 59.0526 40.7931ZM66.6165 51.8824C68.7809 51.8824 70.365 50.2313 70.365 48.2008C70.365 46.1704 68.7809 44.5193 66.6165 44.5193C64.4522 44.5193 62.868 46.1704 62.868 48.2008C62.868 50.2313 64.4522 51.8824 66.6165 51.8824ZM66.6165 49.6288C65.791 49.6288 65.2332 49.0041 65.2332 48.2008C65.2332 47.3976 65.791 46.7728 66.6165 46.7728C67.4421 46.7728 67.9999 47.3976 67.9999 48.2008C67.9999 48.9595 67.4421 49.6288 66.6165 49.6288Z" fill="#1C1F37"/>
<defs>
<filter id="filter0_d" x="0.145674" y="0.864626" width="96.6875" height="96.6875" filterUnits="userSpaceOnUse" color-interpolation-filters="sRGB">
<feFlood flood-opacity="0" result="BackgroundImageFix"/>
<feColorMatrix in="SourceAlpha" type="matrix" values="0 0 0 0 0 0 0 0 0 0 0 0 0 0 0 0 0 0 127 0" result="hardAlpha"/>
<feOffset dy="4.95833"/>
<feGaussianBlur stdDeviation="9.91667"/>
<feColorMatrix type="matrix" values="0 0 0 0 0 0 0 0 0 0 0 0 0 0 0 0 0 0 0.1 0"/>
<feBlend mode="normal" in2="BackgroundImageFix" result="effect1_dropShadow"/>
<feBlend mode="normal" in="SourceGraphic" in2="effect1_dropShadow" result="shape"/>
</filter>
</defs>
</svg>
