<svg width="97" height="97" viewBox="0 0 97 97" fill="none" xmlns="http://www.w3.org/2000/svg">
<g filter="url(#filter0_d)">
<circle cx="48.5207" cy="43.5104" r="28.5104" fill="white"/>
</g>
<path d="M36.2863 40.3213L39.7447 35.2564H36.2194L31.3552 42.5972C30.7751 43.4674 30.4404 44.5384 30.4404 45.7433C30.4404 48.934 32.7386 51.1875 36.0855 51.1875C39.4324 51.1875 41.7529 48.934 41.7529 45.7433C41.7529 42.6195 39.5216 40.4106 36.2863 40.3213ZM36.0855 48.2869C34.6352 48.2869 33.4972 47.3275 33.4972 45.7433C33.4972 44.1591 34.6352 43.222 36.0855 43.222C37.5358 43.222 38.6961 44.1814 38.6961 45.7433C38.6961 47.3275 37.5358 48.2869 36.0855 48.2869ZM52.033 42.7534C53.0371 42.0394 53.6618 40.9684 53.6618 39.5181C53.6618 36.5059 51.3413 34.944 48.5969 34.944C45.8524 34.944 43.5096 36.5059 43.5096 39.5181C43.5096 40.9684 44.1567 42.0394 45.1384 42.7534C43.7774 43.579 42.9964 44.94 42.9964 46.5242C42.9964 49.4025 45.1161 51.1875 48.5969 51.1875C52.0553 51.1875 54.1973 49.4025 54.1973 46.5242C54.1973 44.94 53.4164 43.579 52.033 42.7534ZM48.5969 37.8447C49.7571 37.8447 50.605 38.514 50.605 39.6743C50.605 40.8122 49.7571 41.5262 48.5969 41.5262C47.4366 41.5262 46.5888 40.8122 46.5888 39.6743C46.5888 38.514 47.4366 37.8447 48.5969 37.8447ZM48.5969 48.2869C47.1243 48.2869 46.0533 47.5283 46.0533 46.1226C46.0533 44.7392 47.1243 43.9806 48.5969 43.9806C50.0695 43.9806 51.1405 44.7392 51.1405 46.1226C51.1405 47.5283 50.0695 48.2869 48.5969 48.2869ZM59.2807 42.3072C61.445 42.3072 63.0292 40.6783 63.0292 38.6256C63.0292 36.5505 61.4227 34.944 59.2807 34.944C57.1164 34.944 55.5099 36.5952 55.5099 38.6256C55.5099 40.6783 57.1164 42.3072 59.2807 42.3072ZM57.0941 48.51L58.4329 49.291L68.6297 37.9562L67.2686 37.1976L57.0941 48.51ZM59.2584 40.0536C58.4552 40.0536 57.875 39.4288 57.875 38.6256C57.875 37.8447 58.4552 37.2199 59.2584 37.2199C60.084 37.2199 60.6641 37.8447 60.6641 38.6256C60.6641 39.4065 60.084 40.0536 59.2584 40.0536ZM66.8224 51.1429C68.9867 51.1429 70.5709 49.4918 70.5709 47.4613C70.5709 45.4309 68.9867 43.7798 66.8224 43.7798C64.658 43.7798 63.0739 45.4309 63.0739 47.4613C63.0739 49.4918 64.658 51.1429 66.8224 51.1429ZM66.8224 48.8893C65.9968 48.8893 65.439 48.2646 65.439 47.4613C65.439 46.6581 65.9968 46.0333 66.8224 46.0333C67.6479 46.0333 68.2057 46.6581 68.2057 47.4613C68.2057 48.22 67.6479 48.8893 66.8224 48.8893Z" fill="#1C1F37"/>
<defs>
<filter id="filter0_d" x="0.176924" y="0.125002" width="96.6875" height="96.6875" filterUnits="userSpaceOnUse" color-interpolation-filters="sRGB">
<feFlood flood-opacity="0" result="BackgroundImageFix"/>
<feColorMatrix in="SourceAlpha" type="matrix" values="0 0 0 0 0 0 0 0 0 0 0 0 0 0 0 0 0 0 127 0" result="hardAlpha"/>
<feOffset dy="4.95833"/>
<feGaussianBlur stdDeviation="9.91667"/>
<feColorMatrix type="matrix" values="0 0 0 0 0 0 0 0 0 0 0 0 0 0 0 0 0 0 0.1 0"/>
<feBlend mode="normal" in2="BackgroundImageFix" result="effect1_dropShadow"/>
<feBlend mode="normal" in="SourceGraphic" in2="effect1_dropShadow" result="shape"/>
</filter>
</defs>
</svg>
