<svg width="98" height="98" viewBox="0 0 98 98" fill="none" xmlns="http://www.w3.org/2000/svg">
<g filter="url(#filter0_d)">
<circle cx="48.6669" cy="44.0417" r="28.5104" fill="white"/>
</g>
<path d="M34.4234 35.7875L30.3179 37.2378L31.0766 39.8707L34.0218 39.0452V51.4063H37.1009V35.7875H34.4234ZM39.3036 51.4063H49.7459V48.4387H43.8777L46.9345 45.3819C48.4071 43.9093 49.5004 42.2805 49.5004 40.3839C49.5004 37.2602 47.0237 35.4752 44.3462 35.4752C42.2265 35.4752 40.1961 36.5462 39.192 38.7774L41.7803 40.2947C42.2935 39.179 43.186 38.465 44.3909 38.465C45.5734 38.465 46.4213 39.246 46.4213 40.4955C46.4213 41.5442 45.6404 42.5705 44.6363 43.6192L39.3036 49.1081V51.4063ZM55.1117 42.8383C57.276 42.8383 58.8602 41.2095 58.8602 39.1567C58.8602 37.0817 57.2537 35.4752 55.1117 35.4752C52.9474 35.4752 51.3409 37.1263 51.3409 39.1567C51.3409 41.2095 52.9474 42.8383 55.1117 42.8383ZM52.925 49.0412L54.2638 49.8221L64.4606 38.4873L63.0995 37.7287L52.925 49.0412ZM55.0894 40.5847C54.2861 40.5847 53.706 39.96 53.706 39.1567C53.706 38.3758 54.2861 37.751 55.0894 37.751C55.9149 37.751 56.495 38.3758 56.495 39.1567C56.495 39.9377 55.9149 40.5847 55.0894 40.5847ZM62.6533 51.674C64.8176 51.674 66.4018 50.0229 66.4018 47.9925C66.4018 45.962 64.8176 44.3109 62.6533 44.3109C60.489 44.3109 58.9048 45.962 58.9048 47.9925C58.9048 50.0229 60.489 51.674 62.6533 51.674ZM62.6533 49.4205C61.8277 49.4205 61.2699 48.7957 61.2699 47.9925C61.2699 47.1892 61.8277 46.5645 62.6533 46.5645C63.4788 46.5645 64.0367 47.1892 64.0367 47.9925C64.0367 48.7511 63.4788 49.4205 62.6533 49.4205Z" fill="#1C1F37"/>
<defs>
<filter id="filter0_d" x="0.323164" y="0.656313" width="96.6875" height="96.6875" filterUnits="userSpaceOnUse" color-interpolation-filters="sRGB">
<feFlood flood-opacity="0" result="BackgroundImageFix"/>
<feColorMatrix in="SourceAlpha" type="matrix" values="0 0 0 0 0 0 0 0 0 0 0 0 0 0 0 0 0 0 127 0" result="hardAlpha"/>
<feOffset dy="4.95833"/>
<feGaussianBlur stdDeviation="9.91667"/>
<feColorMatrix type="matrix" values="0 0 0 0 0 0 0 0 0 0 0 0 0 0 0 0 0 0 0.1 0"/>
<feBlend mode="normal" in2="BackgroundImageFix" result="effect1_dropShadow"/>
<feBlend mode="normal" in="SourceGraphic" in2="effect1_dropShadow" result="shape"/>
</filter>
</defs>
</svg>
