<svg width="216" height="214" viewBox="0 0 216 214" fill="none" xmlns="http://www.w3.org/2000/svg">
<path d="M197.57 107C197.57 156.468 157.468 196.57 108 196.57C58.5319 196.57 18.43 156.468 18.43 107C18.43 57.532 58.5319 17.4302 108 17.4302C157.468 17.4302 197.57 57.532 197.57 107Z" stroke="#51CBFF" stroke-width="34.86"/>
<path d="M198 107.348C198 88.5294 192.048 70.1915 180.993 54.949C169.938 39.7065 154.344 28.3378 136.436 22.4641C118.527 16.5903 99.2176 16.5115 81.2613 22.2387C63.305 27.9659 47.6186 39.2068 36.439 54.3585C25.2593 69.5101 19.1573 87.7987 19.003 106.616C18.8487 125.434 24.6501 143.82 35.5798 159.152C46.5095 174.485 62.0095 185.98 79.8695 192" stroke="#30DA88" stroke-width="34.86"/>
<path d="M198 107.388C198 92.0835 194.044 77.0355 186.51 63.6851C178.976 50.3346 168.117 39.1289 154.974 31.1412C141.83 23.1534 126.841 18.6512 111.443 18.0656C96.0455 17.4801 80.7542 20.8309 67.0339 27.7971C53.3136 34.7632 41.6239 45.1115 33.0845 57.8507C24.545 70.5899 19.4418 85.2934 18.2635 100.553C17.0853 115.812 19.8715 131.117 26.3553 145" stroke="#017EFA" stroke-width="34.86"/>
</svg>
