<svg width="28" height="28" viewBox="0 0 28 28" fill="none" xmlns="http://www.w3.org/2000/svg">
<path d="M14 0.666656C6.64796 0.666656 0.666626 6.64799 0.666626 14C0.666626 21.352 6.64796 27.3333 14 27.3333C21.352 27.3333 27.3333 21.352 27.3333 14C27.3333 6.64799 21.352 0.666656 14 0.666656ZM15.3333 22H12.6666V19.3333H15.3333V22ZM16.6346 15.4867C16.3733 15.6973 16.1213 15.8987 15.9213 16.0987C15.3773 16.6413 15.3346 17.1347 15.3333 17.156V17.3333H12.6666V17.1107C12.6666 16.9533 12.7053 15.5413 14.0346 14.212C14.2946 13.952 14.6173 13.688 14.956 13.4133C15.9346 12.62 16.5773 12.0413 16.5773 11.244C16.5618 10.5704 16.2833 9.92966 15.8014 9.45881C15.3195 8.98797 14.6724 8.72444 13.9986 8.72462C13.3249 8.72479 12.678 8.98866 12.1963 9.45975C11.7146 9.93084 11.4364 10.5717 11.4213 11.2453H8.75463C8.75463 8.35332 11.108 5.99999 14 5.99999C16.892 5.99999 19.2453 8.35332 19.2453 11.2453C19.2453 13.3747 17.6733 14.6453 16.6346 15.4867Z" fill="#017EFA"/>
</svg>
