<svg width="22" height="20" viewBox="0 0 22 20" fill="none" xmlns="http://www.w3.org/2000/svg">
<path d="M2.0817 11.9445C1.55299 10.9941 1.28864 10.5188 1.28864 9.99999C1.28864 9.48115 1.55299 9.00593 2.0817 8.05549L3.43095 5.62999L4.85687 3.24876C5.41562 2.31566 5.69499 1.84911 6.14432 1.58969C6.59366 1.33027 7.13739 1.3216 8.22485 1.30426L11 1.25999L13.7752 1.30426C14.8626 1.3216 15.4064 1.33027 15.8557 1.58969C16.305 1.84911 16.5844 2.31566 17.1432 3.24876L18.5691 5.62999L19.9183 8.05549C20.447 9.00593 20.7114 9.48115 20.7114 9.99999C20.7114 10.5188 20.447 10.9941 19.9183 11.9445L18.5691 14.37L17.1432 16.7512C16.5844 17.6843 16.305 18.1509 15.8557 18.4103C15.4064 18.6697 14.8626 18.6784 13.7752 18.6957L11 18.74L8.22485 18.6957C7.13739 18.6784 6.59366 18.6697 6.14433 18.4103C5.695 18.1509 5.41562 17.6843 4.85687 16.7512L3.43095 14.37L2.0817 11.9445Z" stroke="#48B4E9" stroke-width="2"/>
<path d="M14 9.99999C14 11.6568 12.6569 13 11 13C9.34316 13 8.00001 11.6568 8.00001 9.99999C8.00001 8.34314 9.34316 6.99999 11 6.99999C12.6569 6.99999 14 8.34314 14 9.99999Z" stroke="#48B4E9" stroke-width="2"/>
</svg>
