<svg width="20" height="20" viewBox="0 0 20 20" fill="none" xmlns="http://www.w3.org/2000/svg">
<path d="M16.7476 18.3998C16.3263 17.0898 15.4114 15.9709 14.1913 15.1907C12.9724 14.4114 11.4994 14 10 14C8.50065 14 7.02756 14.4114 5.80871 15.1907C4.58863 15.9709 3.67366 17.0898 3.25245 18.3998L5.00921 18.9647C4.53419 18.9444 4.11675 18.9126 3.74416 18.8625C2.76579 18.7309 2.2477 18.4903 1.87868 18.1213L1.18882 18.8112L1.87868 18.1213C1.50966 17.7523 1.26907 17.2342 1.13753 16.2558C1.00212 15.2487 1 13.9139 1 12V8C1 6.08611 1.00212 4.75129 1.13753 3.74416C1.26907 2.76579 1.50966 2.2477 1.87868 1.87868C2.2477 1.50966 2.76579 1.26907 3.74416 1.13753C4.75129 1.00212 6.08611 1 8 1H12C13.9139 1 15.2487 1.00212 16.2558 1.13753C17.2342 1.26907 17.7523 1.50966 18.1213 1.87868L18.8112 1.18882L18.1213 1.87868C18.4903 2.2477 18.7309 2.76579 18.8625 3.74416C18.9979 4.75129 19 6.08611 19 8V12C19 13.9139 18.9979 15.2487 18.8625 16.2558C18.7309 17.2342 18.4903 17.7523 18.1213 18.1213C17.7523 18.4903 17.2342 18.7309 16.2558 18.8625C15.8832 18.9126 15.4658 18.9444 14.9908 18.9647L16.7476 18.3998ZM5.16992 18.971C5.43884 18.1702 6.02518 17.4263 6.88615 16.8757C7.76304 16.315 8.85774 16 10 16C11.1423 16 12.237 16.315 13.1139 16.8757C13.9748 17.4263 14.5612 18.1702 14.8301 18.971C14.0533 18.9993 13.1271 19 12 19H8C6.87294 19 5.94669 18.9993 5.16992 18.971ZM12 8C12 9.10457 11.1046 10 10 10C8.89543 10 8 9.10457 8 8C8 6.89543 8.89543 6 10 6C11.1046 6 12 6.89543 12 8ZM10 12C12.2091 12 14 10.2091 14 8C14 5.79086 12.2091 4 10 4C7.79086 4 6 5.79086 6 8C6 10.2091 7.79086 12 10 12Z" stroke="#CCD2E3" stroke-width="2"/>
</svg>
